<svg width="392" height="300" viewBox="0 0 392 300" fill="none" xmlns="http://www.w3.org/2000/svg">
<path d="M215.775 245.39C215.775 249.02 216.176 257.67 216.567 265.94H274.826C269.938 226.27 259.352 146.79 252.871 140.78C204.543 95.9201 182.159 96.0901 177.085 107.83C172.012 119.57 185.639 200.9 185.639 200.9C185.639 200.9 215.697 237.51 215.775 245.39Z" fill="white"/>
<path d="M274.826 266.44H216.528C216.403 266.44 216.283 266.392 216.192 266.304C216.101 266.217 216.046 266.097 216.039 265.97C215.54 255.38 215.276 248.46 215.247 245.39C215.169 237.78 185.521 201.59 185.228 201.22C185.169 201.157 185.132 201.076 185.121 200.99C184.563 197.66 171.514 119.37 176.597 107.63C177.333 105.927 178.468 104.437 179.902 103.291C181.336 102.145 183.025 101.378 184.818 101.06C192.638 99.36 212.002 102.21 253.164 140.41C259.626 146.41 269.782 221.59 275.275 265.88C275.284 265.95 275.277 266.022 275.256 266.09C275.236 266.158 275.201 266.22 275.155 266.273C275.108 266.326 275.052 266.368 274.988 266.397C274.925 266.426 274.856 266.44 274.787 266.44H274.826ZM217.036 265.44H274.278C265.002 190.65 257.084 145.36 252.549 141.15C211.709 103.25 192.735 100.38 185.101 102.04C183.459 102.328 181.912 103.026 180.597 104.073C179.282 105.12 178.241 106.482 177.564 108.04C172.677 119.29 185.512 196.96 186.137 200.69C188.249 203.27 216.225 237.56 216.303 245.39C216.293 248.39 216.528 255.14 217.036 265.44Z" fill="#231F20"/>
<path d="M223.663 34.0601H145.248C139.693 34.0601 135.19 38.667 135.19 44.3501V219.28C135.19 224.963 139.693 229.57 145.248 229.57H223.663C229.218 229.57 233.722 224.963 233.722 219.28V44.3501C233.722 38.667 229.218 34.0601 223.663 34.0601Z" fill="#231F20"/>
<path d="M223.653 230.07H145.248C142.452 230.067 139.77 228.93 137.793 226.907C135.816 224.884 134.704 222.141 134.701 219.28V44.3501C134.704 41.4892 135.816 38.7462 137.793 36.7233C139.77 34.7004 142.452 33.5627 145.248 33.5601H223.653C226.45 33.5627 229.131 34.7004 231.109 36.7233C233.086 38.7462 234.198 41.4892 234.201 44.3501V219.28C234.198 222.141 233.086 224.884 231.109 226.907C229.131 228.93 226.45 230.067 223.653 230.07ZM145.248 34.5601C142.711 34.5627 140.278 35.595 138.484 37.4304C136.69 39.2658 135.681 41.7544 135.678 44.3501V219.28C135.681 221.876 136.69 224.364 138.484 226.2C140.278 228.035 142.711 229.067 145.248 229.07H223.653C226.192 229.067 228.625 228.035 230.421 226.2C232.217 224.365 233.228 221.877 233.233 219.28V44.3501C233.228 41.7535 232.217 39.2649 230.421 37.4298C228.625 35.5947 226.192 34.5627 223.653 34.5601H145.248Z" fill="#231F20"/>
<path d="M144.192 41H224.67C225.489 41 226.275 41.3329 226.854 41.9255C227.433 42.5182 227.759 43.3219 227.759 44.16V218.36H141.123V44.12C141.133 43.2923 141.461 42.5018 142.035 41.9184C142.608 41.3349 143.383 41.0052 144.192 41Z" fill="white"/>
<path d="M206.381 48.58H162.53C161.681 48.5795 160.853 48.3034 160.166 47.7913C159.479 47.2792 158.969 46.5575 158.708 45.73L155.776 36.47H213.106L210.174 45.73C209.916 46.5535 209.411 47.2725 208.729 47.7844C208.048 48.2963 207.226 48.5747 206.381 48.58Z" fill="#231F20"/>
<path d="M206.381 49.08H162.53C161.578 49.0818 160.65 48.7737 159.88 48.2002C159.111 47.6268 158.539 46.8177 158.249 45.89L155.316 36.62C155.293 36.5463 155.287 36.468 155.299 36.3916C155.311 36.3151 155.34 36.2426 155.385 36.18C155.431 36.1158 155.492 36.0635 155.561 36.0271C155.631 35.9907 155.708 35.9711 155.786 35.97H213.106C213.183 35.9703 213.259 35.9896 213.327 36.0261C213.395 36.0627 213.453 36.1154 213.497 36.18C213.542 36.2426 213.571 36.3151 213.583 36.3916C213.595 36.468 213.589 36.5463 213.566 36.62L210.633 45.89C210.344 46.8128 209.777 47.6184 209.013 48.1914C208.25 48.7644 207.328 49.0755 206.381 49.08ZM156.47 37L159.178 45.61C159.404 46.3372 159.851 46.9716 160.454 47.4211C161.057 47.8707 161.784 48.112 162.53 48.11H206.381C207.127 48.1104 207.853 47.8685 208.456 47.4192C209.058 46.9699 209.506 46.3363 209.734 45.61L212.432 37H156.47Z" fill="#231F20"/>
<path d="M227.778 59.0601H141.123V60.0601H227.778V59.0601Z" fill="#E6E7E8"/>
<path d="M191.376 41.46H167.525C167.396 41.46 167.271 41.4073 167.18 41.3135C167.088 41.2197 167.037 41.0926 167.037 40.96C167.037 40.8274 167.088 40.7002 167.18 40.6064C167.271 40.5126 167.396 40.46 167.525 40.46H191.376C191.506 40.46 191.63 40.5126 191.722 40.6064C191.814 40.7002 191.865 40.8274 191.865 40.96C191.865 41.0926 191.814 41.2197 191.722 41.3135C191.63 41.4073 191.506 41.46 191.376 41.46Z" fill="#E6E7E8"/>
<path d="M198.717 42.53C199.668 42.53 200.438 41.742 200.438 40.77C200.438 39.798 199.668 39.01 198.717 39.01C197.767 39.01 196.997 39.798 196.997 40.77C196.997 41.742 197.767 42.53 198.717 42.53Z" fill="#E6E7E8"/>
<path d="M172.276 138.41C171.356 138.668 170.406 138.8 169.451 138.8C169.25 138.771 169.063 138.678 168.916 138.534C168.768 138.391 168.669 138.204 168.63 138C168.594 137.791 168.624 137.576 168.715 137.385C168.806 137.195 168.955 137.039 169.138 136.94C169.312 136.865 169.497 136.824 169.686 136.82C171.013 136.776 172.314 136.435 173.498 135.82C175.075 135.081 176.453 133.962 177.515 132.56C178.295 131.557 178.828 130.377 179.07 129.12C179.236 128.12 179.295 127.21 179.373 126.25C179.39 125.17 179.531 124.096 179.793 123.05C180.052 122.181 180.563 121.414 181.259 120.85C181.906 120.303 182.675 119.928 183.498 119.76C184.151 119.642 184.824 119.694 185.453 119.91C186.257 120.188 186.992 120.642 187.608 121.239C188.224 121.836 188.706 122.564 189.021 123.37C189.355 124.167 189.537 125.023 189.558 125.89C189.602 127.252 189.514 128.616 189.294 129.96C189.089 131.136 188.815 132.298 188.473 133.44C187.907 135.327 187.105 137.132 186.088 138.81C184.749 141.093 182.916 143.033 180.731 144.48C179.579 145.231 178.333 145.82 177.027 146.23C176.652 146.359 176.295 146.533 175.961 146.75C175.737 146.873 175.569 147.081 175.492 147.33C175.415 147.578 175.436 147.847 175.551 148.08C175.628 148.246 175.668 148.427 175.668 148.61C175.668 148.793 175.628 148.975 175.551 149.14C175.45 149.281 175.314 149.393 175.158 149.464C175.002 149.535 174.83 149.563 174.659 149.545C174.489 149.527 174.327 149.463 174.188 149.361C174.049 149.258 173.939 149.12 173.869 148.96C173.563 148.243 173.521 147.436 173.752 146.69C173.975 146.033 174.405 145.47 174.974 145.09C175.545 144.723 176.164 144.441 176.812 144.25C177.719 143.954 178.591 143.555 179.412 143.06C181.504 141.781 183.256 139.995 184.514 137.86C185.272 136.596 185.901 135.256 186.391 133.86C186.818 132.643 187.145 131.392 187.369 130.12C187.668 128.597 187.763 127.039 187.652 125.49C187.549 124.369 187.036 123.33 186.215 122.58C185.876 122.259 185.477 122.01 185.042 121.85C184.715 121.726 184.365 121.677 184.017 121.706C183.669 121.735 183.332 121.843 183.029 122.02C182.7 122.184 182.407 122.415 182.169 122.699C181.93 122.983 181.75 123.313 181.64 123.67C181.525 124.13 181.443 124.598 181.396 125.07C181.328 125.76 181.298 126.45 181.25 127.14C181.205 128.249 181.038 129.35 180.751 130.42C180.434 131.493 179.949 132.506 179.314 133.42C177.593 135.856 175.11 137.617 172.276 138.41Z" fill="#2BB673"/>
<path d="M192.334 134C192.031 135 191.728 135.9 191.435 136.87C191.142 137.84 190.888 138.72 190.673 139.66C190.519 140.244 190.503 140.858 190.624 141.45C190.688 141.744 190.824 142.016 191.018 142.242C191.213 142.468 191.461 142.639 191.738 142.74C191.922 142.792 192.088 142.895 192.217 143.038C192.347 143.182 192.435 143.359 192.471 143.55C192.489 143.705 192.471 143.862 192.419 144.009C192.366 144.155 192.281 144.287 192.17 144.394C192.059 144.501 191.925 144.58 191.778 144.624C191.632 144.669 191.478 144.678 191.328 144.65C190.834 144.514 190.374 144.273 189.978 143.942C189.582 143.611 189.259 143.198 189.03 142.73C188.729 142.016 188.608 141.235 188.679 140.46C188.765 139.293 189.002 138.143 189.382 137.04C189.744 135.94 190.125 134.84 190.467 133.74C190.858 132.48 191.249 131.21 191.572 129.93C191.878 128.766 192.029 127.565 192.022 126.36C191.992 124.49 191.386 122.678 190.291 121.18C189.563 120.107 188.607 119.215 187.496 118.57C186.055 117.685 184.361 117.332 182.696 117.57C181.662 117.719 180.683 118.137 179.852 118.783C179.02 119.429 178.364 120.281 177.946 121.26C177.34 122.548 176.966 123.937 176.841 125.36C176.645 127.881 175.516 130.231 173.684 131.93C172.583 132.932 171.262 133.645 169.832 134.01C169.314 134.15 168.777 134.26 168.249 134.35C168.01 134.369 167.773 134.299 167.582 134.151C167.391 134.004 167.26 133.79 167.213 133.55C167.192 133.419 167.197 133.285 167.227 133.157C167.257 133.028 167.312 132.906 167.388 132.799C167.465 132.692 167.561 132.602 167.672 132.533C167.783 132.465 167.906 132.419 168.034 132.4C169.067 132.302 170.07 131.992 170.982 131.486C171.894 130.981 172.697 130.292 173.342 129.46C174.009 128.575 174.48 127.551 174.72 126.46C174.847 125.86 174.925 125.25 175.003 124.64C175.2 122.733 175.833 120.9 176.851 119.29C177.784 117.817 179.154 116.688 180.761 116.07C182.051 115.589 183.435 115.428 184.798 115.6C186.026 115.73 187.216 116.11 188.297 116.72C189.456 117.362 190.482 118.228 191.318 119.27C192.229 120.367 192.938 121.624 193.41 122.98C193.862 124.37 194.032 125.84 193.908 127.3C193.847 128.313 193.693 129.317 193.449 130.3C193.068 131.62 192.716 132.81 192.334 134Z" fill="#2BB673"/>
<path d="M184.739 113.14C182.238 112.866 179.722 113.492 177.623 114.91C177.095 115.27 176.401 115.68 175.893 115.29C175.734 115.136 175.631 114.932 175.599 114.711C175.567 114.49 175.609 114.264 175.717 114.07C175.958 113.686 176.296 113.375 176.694 113.17C178.718 111.915 181.028 111.223 183.395 111.163C185.761 111.103 188.102 111.678 190.184 112.83C192.654 114.259 194.697 116.35 196.09 118.879C197.484 121.408 198.176 124.278 198.092 127.18C198.092 128.11 197.955 129.05 197.847 129.98C197.674 131.452 197.346 132.9 196.87 134.3C196.577 135.19 196.215 136.05 195.892 136.92C195.593 137.625 195.469 138.394 195.531 139.16C195.585 139.869 195.87 140.538 196.342 141.06C196.85 141.59 197.652 141.82 198.082 142.42C198.385 142.84 198.454 143.61 197.896 143.88C197.607 143.98 197.29 143.959 197.017 143.82C196.279 143.53 195.612 143.08 195.062 142.5C194.57 142.014 194.196 141.419 193.967 140.76C193.802 140.267 193.691 139.758 193.634 139.24C193.546 138.262 193.694 137.276 194.065 136.37C194.289 135.79 194.583 135.23 194.778 134.63C195.139 133.621 195.446 132.593 195.697 131.55C195.948 130.475 196.121 129.382 196.215 128.28C196.331 127.031 196.304 125.773 196.137 124.53C196.048 123.683 195.857 122.85 195.57 122.05C195.288 121.278 194.961 120.523 194.592 119.79C193.575 117.936 192.141 116.355 190.409 115.18C189.551 114.597 188.625 114.127 187.652 113.78C186.711 113.444 185.732 113.229 184.739 113.14Z" fill="#2BB673"/>
<path d="M198.111 114C199.515 115.99 200.625 118.18 201.406 120.5C201.605 120.955 201.663 121.461 201.572 121.95C201.537 122.102 201.465 122.243 201.363 122.36C201.261 122.476 201.132 122.564 200.988 122.616C200.844 122.668 200.689 122.682 200.538 122.656C200.387 122.631 200.245 122.567 200.125 122.47C199.206 121.81 198.952 119.47 198.493 118.41C197.04 115.076 194.598 112.294 191.513 110.46C190.397 109.826 189.213 109.326 187.985 108.97C186.357 108.492 184.661 108.299 182.97 108.4C181.916 108.463 180.871 108.638 179.852 108.92C177.897 109.468 176.079 110.432 174.515 111.75C172.948 113.04 171.677 114.664 170.79 116.51C170.36 117.41 169.959 118.33 169.598 119.26C169.373 119.84 169.246 120.47 169.07 121.07C169.027 121.26 168.926 121.431 168.782 121.559C168.638 121.686 168.458 121.764 168.268 121.78C168.063 121.818 167.852 121.779 167.673 121.671C167.493 121.562 167.358 121.392 167.291 121.19C167.232 120.974 167.232 120.746 167.291 120.53C167.551 119.432 167.901 118.358 168.337 117.32C168.873 116.039 169.528 114.813 170.292 113.66C171.206 112.312 172.309 111.109 173.566 110.09C174.662 109.185 175.872 108.435 177.164 107.86C178.412 107.295 179.726 106.895 181.074 106.67C182.393 106.438 183.736 106.371 185.072 106.47C186.06 106.554 187.04 106.715 188.004 106.95C189.722 107.363 191.369 108.037 192.892 108.95C194.945 110.258 196.72 111.976 198.111 114Z" fill="#2BB673"/>
<path d="M184.27 101.68C185.308 101.715 186.343 101.815 187.369 101.98C190.786 102.552 193.992 104.047 196.655 106.31C197.153 106.73 197.632 107.18 198.092 107.63C198.183 107.717 198.256 107.822 198.305 107.939C198.355 108.056 198.381 108.183 198.381 108.31C198.381 108.438 198.355 108.564 198.305 108.681C198.256 108.798 198.183 108.903 198.092 108.99C197.911 109.162 197.674 109.257 197.427 109.257C197.181 109.257 196.943 109.162 196.762 108.99C195.729 107.972 194.592 107.07 193.371 106.3C192.054 105.475 190.638 104.829 189.158 104.38C188.094 104.061 187.005 103.84 185.902 103.72C184.693 103.595 183.475 103.595 182.266 103.72C180.737 103.851 179.232 104.187 177.789 104.72C175.888 105.421 174.112 106.434 172.53 107.72C172.071 108.11 171.611 108.5 171.171 108.92C171.092 109.051 170.984 109.162 170.855 109.243C170.727 109.325 170.582 109.374 170.432 109.389C170.281 109.403 170.13 109.382 169.989 109.326C169.848 109.27 169.722 109.182 169.62 109.068C169.518 108.954 169.443 108.818 169.401 108.669C169.36 108.521 169.352 108.365 169.379 108.213C169.407 108.061 169.468 107.917 169.558 107.794C169.649 107.67 169.766 107.57 169.901 107.5C171.403 106.049 173.102 104.827 174.945 103.87C176.077 103.28 177.262 102.801 178.483 102.44C180.365 101.896 182.315 101.64 184.27 101.68Z" fill="#2BB673"/>
<path d="M192.989 149.58C191.805 149.558 190.657 149.16 189.705 148.44C188.884 147.84 188.141 147.14 187.359 146.49C187.141 146.309 186.913 146.142 186.675 145.99C186.529 145.917 186.364 145.897 186.205 145.934C186.047 145.97 185.906 146.06 185.805 146.19C185.238 146.7 184.7 147.19 184.172 147.77C183.266 148.797 182.265 149.732 181.181 150.56C180.138 151.316 178.964 151.862 177.721 152.17C177.386 152.294 177.019 152.294 176.685 152.17C176.511 152.085 176.365 151.95 176.266 151.781C176.167 151.612 176.119 151.417 176.128 151.22C176.143 151.013 176.221 150.816 176.351 150.657C176.48 150.497 176.655 150.383 176.851 150.33C178.068 150.107 179.218 149.6 180.213 148.85C181.268 148.008 182.249 147.075 183.146 146.06C183.683 145.5 184.254 144.976 184.857 144.49C185.153 144.245 185.5 144.074 185.871 143.989C186.242 143.904 186.628 143.908 186.997 144C187.507 144.135 187.977 144.396 188.366 144.76C189.011 145.31 189.637 145.89 190.321 146.43C190.888 146.913 191.557 147.255 192.276 147.43C192.889 147.578 193.529 147.561 194.133 147.38C194.736 147.188 195.311 146.916 195.844 146.57C196.052 146.501 196.278 146.506 196.483 146.584C196.689 146.662 196.863 146.808 196.978 147C197.115 147.203 197.168 147.454 197.126 147.697C197.084 147.94 196.95 148.157 196.753 148.3C196.008 148.841 195.163 149.222 194.27 149.42C193.85 149.47 193.42 149.51 192.989 149.58Z" fill="#2BB673"/>
<path d="M202.54 129.65C202.527 130.966 202.426 132.279 202.237 133.58C201.979 135.243 201.547 136.873 200.946 138.44C200.712 139.07 200.428 139.67 200.145 140.27C200.029 140.476 199.846 140.634 199.628 140.715C199.409 140.795 199.17 140.794 198.952 140.71C198.726 140.607 198.546 140.419 198.45 140.185C198.354 139.951 198.348 139.688 198.434 139.45C198.737 138.71 199.089 137.99 199.343 137.24C199.656 136.3 199.93 135.33 200.154 134.37C200.57 132.546 200.725 130.67 200.614 128.8C200.614 127.98 200.467 127.16 200.369 126.35C200.338 126.098 200.401 125.843 200.546 125.637C200.691 125.431 200.908 125.289 201.151 125.24C201.384 125.192 201.627 125.238 201.827 125.368C202.028 125.499 202.171 125.704 202.227 125.94C202.447 127.164 202.552 128.406 202.54 129.65Z" fill="#2BB673"/>
<path d="M169.608 126.77C170.473 125.764 170.995 124.496 171.093 123.16C171.287 121.936 171.594 120.734 172.012 119.57C172.319 118.739 172.695 117.936 173.136 117.17C173.179 117.024 173.254 116.89 173.356 116.778C173.457 116.667 173.582 116.58 173.721 116.525C173.86 116.47 174.009 116.449 174.157 116.462C174.306 116.475 174.449 116.523 174.577 116.602C174.704 116.68 174.813 116.788 174.893 116.916C174.974 117.044 175.025 117.189 175.043 117.34C175.061 117.492 175.044 117.645 174.995 117.789C174.946 117.933 174.865 118.063 174.759 118.17C174.187 119.149 173.747 120.201 173.449 121.3C173.244 122.07 173.107 122.86 172.951 123.65C172.77 124.683 172.468 125.691 172.051 126.65C171.779 127.295 171.378 127.874 170.873 128.35C170.367 128.825 169.77 129.186 169.119 129.41C168.551 129.562 167.973 129.669 167.389 129.73C167.147 129.731 166.913 129.641 166.733 129.477C166.552 129.313 166.438 129.086 166.411 128.84C166.411 127.66 167.711 127.84 168.454 127.52C168.877 127.337 169.266 127.084 169.608 126.77Z" fill="#2BB673"/>
<path d="M185.629 126.1C185.593 127.244 185.479 128.383 185.287 129.51C185.058 130.939 184.675 132.338 184.143 133.68C183.604 135.045 182.884 136.327 182.002 137.49C181.941 137.628 181.851 137.749 181.737 137.846C181.624 137.942 181.491 138.011 181.348 138.048C181.205 138.084 181.055 138.087 180.911 138.056C180.766 138.025 180.631 137.961 180.514 137.869C180.397 137.776 180.303 137.658 180.237 137.523C180.171 137.388 180.136 137.24 180.134 137.089C180.133 136.938 180.164 136.788 180.227 136.652C180.29 136.515 180.382 136.395 180.497 136.3C181.314 135.192 181.973 133.969 182.452 132.67C182.89 131.56 183.218 130.408 183.429 129.23C183.638 127.954 183.749 126.664 183.762 125.37C183.759 125.169 183.815 124.972 183.923 124.805C184.031 124.637 184.186 124.506 184.368 124.43C184.572 124.361 184.793 124.363 184.996 124.435C185.199 124.507 185.374 124.646 185.492 124.83C185.581 125.025 185.634 125.235 185.648 125.45C185.648 125.66 185.629 125.88 185.629 126.1Z" fill="#2BB673"/>
<path d="M187.603 150.64C188.664 150.641 189.719 150.789 190.741 151.08C190.957 151.125 191.152 151.243 191.294 151.416C191.436 151.588 191.517 151.805 191.523 152.03C191.53 152.257 191.461 152.48 191.328 152.662C191.195 152.844 191.005 152.973 190.79 153.03C190.653 153.07 190.507 153.07 190.37 153.03C189.518 152.776 188.637 152.635 187.75 152.61C186.956 152.593 186.163 152.688 185.394 152.89C184.6 153.116 183.841 153.453 183.136 153.89C182.918 153.996 182.67 154.015 182.439 153.945C182.209 153.875 182.011 153.72 181.885 153.51C181.775 153.3 181.742 153.056 181.792 152.823C181.843 152.591 181.973 152.384 182.159 152.24C182.664 151.933 183.19 151.662 183.732 151.43C184.287 151.207 184.859 151.033 185.443 150.91C186.147 150.77 186.87 150.72 187.594 150.62L187.603 150.64Z" fill="#2BB673"/>
<path d="M171.621 143.48C171.395 143.486 171.174 143.411 170.996 143.269C170.818 143.126 170.693 142.925 170.644 142.7C170.596 142.45 170.643 142.191 170.776 141.975C170.908 141.76 171.116 141.604 171.357 141.54C171.973 141.4 172.589 141.29 173.185 141.12C174.422 140.798 175.609 140.304 176.714 139.65C177.095 139.42 177.467 139.17 177.828 138.92C178.036 138.772 178.292 138.713 178.541 138.754C178.791 138.795 179.015 138.933 179.168 139.14C179.308 139.357 179.36 139.622 179.312 139.878C179.265 140.134 179.122 140.36 178.913 140.51C177.804 141.367 176.571 142.042 175.258 142.51C174.388 142.82 173.498 143.07 172.618 143.32C172.305 143.37 171.963 143.41 171.621 143.48Z" fill="#2BB673"/>
<path d="M184.456 160.35C178.165 160.35 172.015 158.442 166.784 154.866C161.554 151.291 157.477 146.208 155.069 140.263C152.662 134.317 152.032 127.774 153.259 121.462C154.486 115.15 157.516 109.352 161.964 104.801C166.413 100.25 172.08 97.1508 178.25 95.8953C184.421 94.6397 190.816 95.2841 196.628 97.747C202.44 100.21 207.408 104.381 210.903 109.732C214.398 115.083 216.264 121.374 216.264 127.81C216.256 136.438 212.902 144.71 206.939 150.811C200.975 156.911 192.889 160.342 184.456 160.35ZM184.456 96.27C178.358 96.27 172.397 98.1198 167.327 101.585C162.257 105.051 158.306 109.977 155.972 115.74C153.639 121.503 153.028 127.845 154.218 133.963C155.407 140.081 158.344 145.701 162.655 150.112C166.967 154.523 172.461 157.527 178.441 158.744C184.422 159.961 190.621 159.336 196.254 156.949C201.888 154.562 206.703 150.519 210.09 145.333C213.478 140.146 215.286 134.048 215.286 127.81C215.276 119.448 212.024 111.432 206.245 105.52C200.465 99.607 192.629 96.2806 184.456 96.27Z" fill="#D1D3D4"/>
<path d="M188.972 265.94C190.329 260.18 192.461 254.641 195.306 249.48C203.214 235.8 239.127 215.36 240.75 213.25C244.611 208.25 246.097 199.3 239.987 199.06C233.878 198.82 206.107 206.16 197.144 212.26C197.144 212.26 193.537 173.26 193.898 163.62C195.629 116.92 181.034 120.39 179.099 125.46C177.164 130.53 174.339 189.7 174.339 189.7C174.339 189.7 167.154 182.42 162.912 182.2C158.669 181.98 155.004 190.37 155.004 190.37C155.004 190.37 148.102 185 144.564 185.86C136.304 187.86 136.969 197.86 136.969 197.86C136.969 197.86 133.059 192.86 129.686 193.07C126.832 193.26 121.143 196.75 120.068 209.33C118.533 227.4 117.653 250.21 117.135 265.92L188.972 265.94Z" fill="white"/>
<path d="M188.972 266.44H117.174C117.109 266.442 117.044 266.429 116.983 266.403C116.922 266.377 116.868 266.339 116.823 266.29C116.776 266.244 116.739 266.188 116.715 266.125C116.692 266.063 116.682 265.997 116.686 265.93C117.399 242.6 118.367 223.55 119.618 209.31C120.693 196.57 126.461 192.81 129.686 192.59C132.326 192.41 135.141 195.07 136.529 196.59C136.695 193.7 137.79 187 144.486 185.4C147.692 184.64 153.195 188.4 154.857 189.63C155.776 187.73 158.972 181.72 162.794 181.72H162.98C166.558 181.9 171.934 186.72 173.938 188.6C174.348 180.26 176.87 130.06 178.679 125.29C179.153 124.196 179.979 123.302 181.02 122.756C182.06 122.21 183.252 122.046 184.397 122.29C187.848 123.02 195.736 128.53 194.426 163.68C194.104 172.37 197.085 205.78 197.603 211.44C207.29 205.36 233.165 198.59 239.724 198.59H239.988C240.833 198.571 241.666 198.803 242.384 199.26C243.103 199.716 243.676 200.376 244.034 201.16C245.569 204.58 243.761 210.16 241.102 213.59C240.652 214.18 238.443 215.59 233.878 218.59C222.559 225.97 201.494 239.71 195.697 249.74C192.866 254.859 190.75 260.36 189.412 266.08C189.384 266.179 189.326 266.267 189.248 266.331C189.169 266.396 189.072 266.434 188.972 266.44ZM117.673 265.44H188.591C189.952 259.764 192.07 254.306 194.886 249.22C200.751 238.99 222.002 225.16 233.389 217.73C235.803 216.27 238.133 214.67 240.369 212.94C243.125 209.36 244.377 204.25 243.164 201.55C242.885 200.931 242.432 200.41 241.863 200.054C241.294 199.698 240.634 199.523 239.968 199.55H239.675C233.213 199.55 206.176 206.71 197.417 212.68C197.344 212.721 197.262 212.743 197.178 212.743C197.094 212.743 197.012 212.721 196.938 212.68C196.861 212.643 196.795 212.585 196.747 212.513C196.699 212.441 196.671 212.357 196.665 212.27C196.665 211.88 193.048 173.09 193.41 163.56C194.72 128.21 186.665 123.72 184.163 123.19C183.24 122.986 182.277 123.115 181.436 123.554C180.595 123.993 179.928 124.716 179.549 125.6C177.662 130.54 174.857 189.1 174.827 189.69C174.821 189.786 174.788 189.878 174.733 189.956C174.678 190.034 174.602 190.094 174.515 190.13C174.427 190.166 174.331 190.174 174.239 190.155C174.147 190.135 174.063 190.088 173.997 190.02C173.928 189.95 166.9 182.87 162.892 182.66H162.765C158.963 182.66 155.512 190.45 155.473 190.53C155.445 190.6 155.401 190.662 155.345 190.71C155.289 190.759 155.222 190.793 155.15 190.81C155.079 190.83 155.004 190.833 154.931 190.82C154.858 190.806 154.79 190.775 154.73 190.73C154.671 190.68 147.966 185.53 144.691 186.31C136.939 188.16 137.448 197.42 137.477 197.81C137.483 197.916 137.455 198.022 137.399 198.111C137.343 198.201 137.261 198.271 137.164 198.31C137.068 198.35 136.962 198.357 136.861 198.33C136.761 198.303 136.672 198.244 136.607 198.16C136.607 198.16 132.814 193.33 129.765 193.55C127.047 193.73 121.632 197.27 120.605 209.35C119.354 223.52 118.387 242.37 117.673 265.44Z" fill="#231F20"/>
<path d="M149.432 108.63C149.173 108.63 148.924 108.525 148.741 108.337C148.557 108.149 148.454 107.895 148.454 107.63V89.6299C148.454 89.3647 148.557 89.1103 148.741 88.9228C148.924 88.7352 149.173 88.6299 149.432 88.6299H167.477C167.736 88.6299 167.984 88.7352 168.168 88.9228C168.351 89.1103 168.454 89.3647 168.454 89.6299C168.454 89.8951 168.351 90.1495 168.168 90.337C167.984 90.5245 167.736 90.6299 167.477 90.6299H150.409V107.63C150.409 107.895 150.306 108.149 150.123 108.337C149.94 108.525 149.691 108.63 149.432 108.63Z" fill="#2BB673"/>
<path d="M219.46 108.63C219.201 108.63 218.952 108.525 218.769 108.337C218.585 108.149 218.482 107.895 218.482 107.63V90.6299H201.435C201.176 90.6299 200.927 90.5245 200.744 90.337C200.56 90.1495 200.457 89.8951 200.457 89.6299C200.457 89.3647 200.56 89.1103 200.744 88.9228C200.927 88.7352 201.176 88.6299 201.435 88.6299H219.46C219.719 88.6299 219.968 88.7352 220.151 88.9228C220.334 89.1103 220.437 89.3647 220.437 89.6299V107.63C220.437 107.895 220.334 108.149 220.151 108.337C219.968 108.525 219.719 108.63 219.46 108.63Z" fill="#2BB673"/>
<path d="M167.477 167H149.432C149.173 167 148.924 166.895 148.741 166.707C148.557 166.52 148.454 166.265 148.454 166V148C148.454 147.735 148.557 147.48 148.741 147.293C148.924 147.105 149.173 147 149.432 147C149.691 147 149.94 147.105 150.123 147.293C150.306 147.48 150.409 147.735 150.409 148V165H167.477C167.736 165 167.984 165.105 168.168 165.293C168.351 165.48 168.454 165.735 168.454 166C168.454 166.265 168.351 166.52 168.168 166.707C167.984 166.895 167.736 167 167.477 167Z" fill="#2BB673"/>
<path d="M219.46 167H201.435C201.176 167 200.927 166.895 200.744 166.707C200.56 166.52 200.457 166.265 200.457 166C200.457 165.735 200.56 165.48 200.744 165.293C200.927 165.105 201.176 165 201.435 165H218.482V148C218.482 147.735 218.585 147.48 218.769 147.293C218.952 147.105 219.201 147 219.46 147C219.719 147 219.968 147.105 220.151 147.293C220.334 147.48 220.437 147.735 220.437 148V166C220.437 166.265 220.334 166.52 220.151 166.707C219.968 166.895 219.719 167 219.46 167Z" fill="#2BB673"/>
<path d="M263.624 185.67C263.624 185.67 258.062 143.86 249.939 136.14C240.33 126.97 222.5 103.82 217.681 106.26C210.399 109.94 220.535 137.38 233.673 147.26C233.673 147.26 231.278 162.93 238.003 191.75" fill="white"/>
<path d="M238.033 192.16C237.931 192.161 237.833 192.127 237.753 192.063C237.673 192 237.617 191.91 237.593 191.81C231.405 165.28 232.95 149.65 233.223 147.42C224.426 140.62 213.957 121.83 214.876 110.86C215.091 108.31 215.98 106.62 217.515 105.86C220.907 104.13 228.561 112.21 239.86 124.73C243.712 129.01 247.358 133.05 250.261 135.82C258.374 143.56 263.819 183.91 264.044 185.62C264.052 185.679 264.049 185.739 264.034 185.797C264.019 185.855 263.993 185.909 263.958 185.957C263.922 186.004 263.878 186.044 263.827 186.074C263.777 186.104 263.721 186.123 263.663 186.13C263.546 186.142 263.428 186.109 263.334 186.036C263.24 185.964 263.176 185.858 263.154 185.74C263.105 185.33 257.534 144.01 249.655 136.49C246.723 133.69 243.067 129.64 239.196 125.35C231.073 116.35 220.956 105.14 217.906 106.68C216.674 107.3 215.951 108.74 215.775 110.95C215.003 120.1 223.683 139.16 233.966 146.85C234.03 146.902 234.079 146.97 234.11 147.047C234.141 147.124 234.152 147.207 234.142 147.29C234.142 147.45 231.845 163.22 238.463 191.61C238.489 191.728 238.469 191.852 238.407 191.955C238.345 192.058 238.245 192.132 238.13 192.16H238.033Z" fill="#231F20"/>
</svg>
