<svg id="Capa_1" data-name="Capa 1" xmlns="http://www.w3.org/2000/svg" viewBox="0 0 512 512"><title>folder-with-contain</title><path d="M416,149.34H96a53.33,53.33,0,0,0-53.33,53.33V224a10.67,10.67,0,0,0,10.67,10.67h91.3a10.83,10.83,0,0,1,10.14,7.17L166.4,277a32.25,32.25,0,0,0,30.3,21.65h262A10.68,10.68,0,0,0,469.34,288V202.67A53.35,53.35,0,0,0,416,149.34Z" transform="translate(0 0)" style="fill:#04a18c"/><path d="M416,0H224a10.67,10.67,0,0,0-10.66,10.67V128H96a10.67,10.67,0,0,0-10.66,10.67V288A10.66,10.66,0,0,0,96,298.67H416A10.67,10.67,0,0,0,426.67,288h0V10.67A10.67,10.67,0,0,0,416,0Z" transform="translate(0 0)" style="fill:#cfd8dc"/><path d="M480,277.34H196.7a11,11,0,0,1-10.14-7.17L174.94,235a32.25,32.25,0,0,0-30.3-21.65H32a32,32,0,0,0-32,32A302.34,302.34,0,0,0,12.61,332L55.28,474a53.32,53.32,0,0,0,51.18,38H407.68a53.33,53.33,0,0,0,50.12-34.66l46.08-122.93A129.13,129.13,0,0,0,512,309.34,32,32,0,0,0,480,277.34Z" transform="translate(0 0)" style="fill:#44c4a1"/><path d="M228.08.81a10.68,10.68,0,0,0-11.63,2.31l-128,128A10.67,10.67,0,0,0,96,149.34H224a10.67,10.67,0,0,0,10.67-10.67v-128A10.67,10.67,0,0,0,228.08.81Z" transform="translate(0 0)" style="fill:#b0bec5"/></svg>