<svg id="Capa_1" data-name="Capa 1" xmlns="http://www.w3.org/2000/svg" viewBox="0 0 58 57.88"><title>folder-with-contain</title><path d="M50.27,18H48v9h4V19.73A1.73,1.73,0,0,0,50.27,18Z" transform="translate(0 -0.12)" style="fill:#556080"/><path d="M46.32,58H1.57A1.56,1.56,0,0,1,.06,56L10.22,28.16A1.55,1.55,0,0,1,11.73,27H56.49c1,0,1.51,1,1.51,2L47.83,56.84A1.55,1.55,0,0,1,46.32,58Z" transform="translate(0 -0.12)" style="fill:#04a18c"/><path d="M4,11H1.73A1.73,1.73,0,0,0,0,12.73V55.46H.2L4,45.12Z" transform="translate(0 -0.12)" style="fill:#556080"/><polygon points="10 28.64 10 1.88 7 1.88 7 36.87 10 28.64" style="fill:#c5c5c5"/><path d="M10.22,28.78a1.55,1.55,0,0,1,1.51-1.16H48V.62H10V29.38Z" transform="translate(0 -0.12)" style="fill:#fff;stroke:#d7d7d7;stroke-miterlimit:10"/><path d="M17,16H41a1,1,0,0,0,0-2H17a1,1,0,0,0,0,2Z" transform="translate(0 -0.12)" style="fill:#c5c5c5"/><path d="M17,9H27a1,1,0,0,0,0-2H17a1,1,0,0,0,0,2Z" transform="translate(0 -0.12)" style="fill:#c5c5c5"/><path d="M41,21H17a1,1,0,0,0,0,2H41a1,1,0,0,0,0-2Z" transform="translate(0 -0.12)" style="fill:#c5c5c5"/><polygon points="7 36.87 7 3.88 4 3.88 4 45.09 7 36.87" style="fill:#b4b4b4"/></svg>