<svg id="Capa_1" data-name="Capa 1" xmlns="http://www.w3.org/2000/svg" viewBox="0 0 58 47"><title>opened-empty-folder</title><path d="M50.27,18H25l-5-7H1.73A1.74,1.74,0,0,0,0,12.73V55.46H.21l10-27.31A1.55,1.55,0,0,1,11.73,27H52V19.73A1.73,1.73,0,0,0,50.27,18Z" transform="translate(0 -11)" style="fill:#556080"/><path d="M46.32,58H1.57A1.56,1.56,0,0,1,.06,56L10.22,28.16A1.56,1.56,0,0,1,11.73,27H56.49c1,0,1.51,1,1.51,2L47.83,56.84A1.55,1.55,0,0,1,46.32,58Z" transform="translate(0 -11)" style="fill:#04a18c"/></svg>