<svg id="Capa_1" data-name="Capa 1" xmlns="http://www.w3.org/2000/svg" viewBox="0 0 512 362.7"><title>opened-empty-folder</title><path d="M416,149.3H96a53.28,53.28,0,0,0-53.3,53.3V224a10.71,10.71,0,0,0,10.7,10.7h91.3a10.76,10.76,0,0,1,10.1,7.2l11.6,35.2a32.33,32.33,0,0,0,30.3,21.7h262a10.71,10.71,0,0,0,10.7-10.7V202.8A53.48,53.48,0,0,0,416,149.3Z" transform="translate(0 -149.3)" style="fill:#04a18c"/><path d="M480,277.3H196.7a10.9,10.9,0,0,1-10.1-7.2L174.9,235a32.33,32.33,0,0,0-30.3-21.7H32a32,32,0,0,0-32,32A302.61,302.61,0,0,0,12.6,332L55.3,473.9A53.28,53.28,0,0,0,106.5,512H407.7a53.3,53.3,0,0,0,50.1-34.7l46.1-122.9a128.47,128.47,0,0,0,8.1-45.1A32,32,0,0,0,480,277.3Z" transform="translate(0 -149.3)" style="fill:#44c4a1"/></svg>