<svg width="260" height="174" viewBox="0 0 260 174" fill="none" xmlns="http://www.w3.org/2000/svg">
<g clip-path="url(#clip0)">
<path d="M222.85 144.286L150.334 117.892C148.665 117.285 148.028 115.259 149.051 113.805L181.956 74.6445C182.657 73.648 183.939 73.2451 185.084 73.662L257.601 100.056C259.27 100.663 259.467 102.541 258.884 104.143L225.978 143.304C225.278 144.3 223.996 144.703 222.85 144.286Z" fill="#EFCE4A"/>
<path d="M252.828 81.8054L249.153 80.468L243.846 95.0495L250.327 97.4082L254.613 85.6329C255.177 84.0824 254.377 82.3692 252.828 81.8054Z" fill="#EBBA16"/>
<path d="M181.994 43.1805L178.32 41.8431C176.771 41.2794 175.057 42.0774 174.492 43.6279L149.296 112.854C149.407 112.898 149.516 112.945 149.622 112.991L161.873 98.4636L181.994 43.1805Z" fill="#EBBA16"/>
<path d="M185.255 73.2344C184.327 72.8967 183.323 73.0129 182.515 73.4976L198.5 29.5801L235.294 42.9719L259.126 51.6463L250.452 75.4788L243.547 94.4509L188.495 74.4138L185.255 73.2344Z" fill="#F7FFFE" stroke="#D7D7D7"/>
<path d="M200.108 58.9472L238.992 73.0998C239.886 73.4253 240.875 72.9652 241.201 72.0693C241.528 71.1733 241.065 70.1849 240.171 69.8594L201.287 55.7069C200.393 55.3814 199.403 55.8414 199.077 56.7373C198.751 57.6333 199.213 58.6217 200.108 58.9472Z" fill="#D7D7D7"/>
<path d="M204.236 47.6061L220.437 53.503C221.332 53.8285 222.321 53.3685 222.647 52.4726C222.973 51.5766 222.511 50.5882 221.617 50.2627L205.415 44.3658C204.521 44.0403 203.531 44.5003 203.205 45.3963C202.879 46.2922 203.341 47.2806 204.236 47.6061Z" fill="#D7D7D7"/>
<path d="M236.043 81.2006L197.159 67.0481C196.265 66.7226 195.275 67.1826 194.949 68.0785C194.623 68.9745 195.086 69.9629 195.98 70.2884L234.864 84.4409C235.758 84.7664 236.747 84.3064 237.074 83.4105C237.4 82.5145 236.937 81.5261 236.043 81.2006Z" fill="#D7D7D7"/>
<path d="M181.242 75.4943L197.023 32.1372L192.162 30.3682L171.531 87.0511L181.242 75.4943Z" fill="#D7D7D7"/>
<path d="M171.531 87.0511L190.983 33.6085L186.122 31.8395L161.82 98.6079L171.531 87.0511Z" fill="#C5C5C5"/>
</g>
<g clip-path="url(#clip1)">
<rect y="51" width="120" height="120" rx="4" transform="rotate(-20 0 51)" fill="#FAFAFA"/>
<g clip-path="url(#clip2)">
<rect y="51" width="120" height="120" rx="4" transform="rotate(-20 0 51)" fill="#F7FFFE"/>
<g clip-path="url(#clip3)">
<g clip-path="url(#clip4)">
<g clip-path="url(#clip5)">
<g clip-path="url(#clip6)">
<rect x="20.5942" y="63.7239" width="14" height="14" rx="3" transform="rotate(-20 20.5942 63.7239)" stroke="#D7D7D7" stroke-width="2"/>
</g>
<rect x="92.7812" y="42.7709" width="16" height="4" rx="2" transform="rotate(-20 92.7812 42.7709)" fill="#D7D7D7"/>
</g>
</g>
<g clip-path="url(#clip7)">
<rect x="29.915" y="92.2567" width="52" height="4" rx="2" transform="rotate(-20 29.915 92.2567)" fill="#D7D7D7"/>
</g>
<g clip-path="url(#clip8)">
<rect x="33.335" y="101.654" width="92" height="4" rx="2" transform="rotate(-20 33.335 101.654)" fill="#D7D7D7"/>
</g>
<g clip-path="url(#clip9)">
<rect x="36.7559" y="111.051" width="72" height="4" rx="2" transform="rotate(-20 36.7559 111.051)" fill="#D7D7D7"/>
</g>
<g clip-path="url(#clip10)">
<g clip-path="url(#clip11)">
<rect x="43.2539" y="128.905" width="50" height="18" rx="9" transform="rotate(-20 43.2539 128.905)" fill="#D7D7D7"/>
</g>
</g>
</g>
</g>
</g>
<rect y="51" width="120" height="120" rx="4" transform="rotate(-20 0 51)" stroke="#D7D7D7"/>
<g filter="url(#filter0_d)">
<rect x="43" width="174" height="174" rx="4" fill="white"/>
<rect x="43" width="174" height="174" rx="4" fill="white"/>
<rect width="174" height="174" transform="translate(43)" fill="white"/>
<rect x="58" y="19" width="14" height="14" rx="3" stroke="#D7D7D7" stroke-width="2"/>
<rect x="187" y="24" width="16" height="4" rx="2" fill="#D7D7D7"/>
<rect x="57" y="49" width="106" height="4" rx="2" fill="#D7D7D7"/>
<rect x="57" y="59" width="146" height="4" rx="2" fill="#D7D7D7"/>
<rect x="57" y="69" width="126" height="4" rx="2" fill="#D7D7D7"/>
<rect x="57" y="88" width="50" height="18" rx="9" fill="#04A18C"/>
<rect x="43.5" y="0.5" width="173" height="173" rx="3.5" stroke="#D7D7D7"/>
</g>
<defs>
<filter id="filter0_d" x="43" y="0" width="174" height="174" filterUnits="userSpaceOnUse" color-interpolation-filters="sRGB">
<feFlood flood-opacity="0" result="BackgroundImageFix"/>
<feColorMatrix in="SourceAlpha" type="matrix" values="0 0 0 0 0 0 0 0 0 0 0 0 0 0 0 0 0 0 127 0"/>
<feMorphology radius="4" operator="erode" in="SourceAlpha" result="effect1_dropShadow"/>
<feOffset/>
<feColorMatrix type="matrix" values="0 0 0 0 0.0666667 0 0 0 0 0.0666667 0 0 0 0 0.0666667 0 0 0 0.25 0"/>
<feBlend mode="normal" in2="BackgroundImageFix" result="effect1_dropShadow"/>
<feBlend mode="normal" in="SourceGraphic" in2="effect1_dropShadow" result="shape"/>
</filter>
<clipPath id="clip0">
<rect width="100" height="100" fill="white" transform="translate(182 23) rotate(20)"/>
</clipPath>
<clipPath id="clip1">
<rect y="51" width="120" height="120" rx="4" transform="rotate(-20 0 51)" fill="white"/>
</clipPath>
<clipPath id="clip2">
<rect y="51" width="120" height="120" rx="4" transform="rotate(-20 0 51)" fill="white"/>
</clipPath>
<clipPath id="clip3">
<rect width="120" height="120" fill="white" transform="translate(0 51) rotate(-20)"/>
</clipPath>
<clipPath id="clip4">
<rect width="92" height="32" fill="white" transform="translate(17.9443 59.3674) rotate(-20)"/>
</clipPath>
<clipPath id="clip5">
<rect width="92" height="24" fill="white" transform="translate(17.9443 59.3674) rotate(-20)"/>
</clipPath>
<clipPath id="clip6">
<rect x="19.3125" y="63.1262" width="16" height="16" rx="4" transform="rotate(-20 19.3125 63.1262)" fill="white"/>
</clipPath>
<clipPath id="clip7">
<rect width="92" height="10" fill="white" transform="translate(28.8887 89.4376) rotate(-20)"/>
</clipPath>
<clipPath id="clip8">
<rect width="92" height="10" fill="white" transform="translate(32.3086 98.8345) rotate(-20)"/>
</clipPath>
<clipPath id="clip9">
<rect width="92" height="10" fill="white" transform="translate(35.7295 108.231) rotate(-20)"/>
</clipPath>
<clipPath id="clip10">
<rect width="92" height="30" fill="white" transform="translate(39.1494 117.628) rotate(-20)"/>
</clipPath>
<clipPath id="clip11">
<rect width="128" height="26" fill="white" transform="translate(41.8857 125.146) rotate(-20)"/>
</clipPath>
</defs>
</svg>
