<svg id="Слой_1" data-name="Слой 1" xmlns="http://www.w3.org/2000/svg" xmlns:xlink="http://www.w3.org/1999/xlink" viewBox="0 0 259.14 174"><defs><clipPath id="clip-path" transform="translate(-0.63 0)"><rect x="161.88" y="37.09" width="100" height="100" transform="translate(57.58 256.41) rotate(-70)" style="fill:none"/></clipPath><clipPath id="clip-path-2" transform="translate(-0.63 0)"><rect x="16.9" y="26.86" width="120" height="120" rx="4" transform="translate(-25.07 31.54) rotate(-20)" style="fill:none"/></clipPath><clipPath id="clip-path-4" transform="translate(-0.63 0)"><rect x="16.9" y="26.86" width="120" height="120" transform="translate(-25.07 31.54) rotate(-20)" style="fill:none"/></clipPath><clipPath id="clip-path-5" transform="translate(-0.63 0)"><rect x="20.64" y="42.67" width="92" height="32" transform="translate(-16.05 26.33) rotate(-20)" style="fill:none"/></clipPath><clipPath id="clip-path-6" transform="translate(-0.63 0)"><rect x="19.27" y="42.91" width="92" height="24" transform="translate(-14.84 25.64) rotate(-20)" style="fill:none"/></clipPath><clipPath id="clip-path-7" transform="translate(-0.63 0)"><rect x="21.57" y="59.91" width="16" height="16" rx="4" transform="translate(-21.44 14.21) rotate(-20)" style="fill:none"/></clipPath><clipPath id="clip-path-8" transform="translate(-0.63 0)"><rect x="27.82" y="73.4" width="92" height="10" transform="translate(-22.36 29.98) rotate(-20)" style="fill:none"/></clipPath><clipPath id="clip-path-9" transform="translate(-0.63 0)"><rect x="31.24" y="82.8" width="92" height="10" transform="translate(-25.37 31.71) rotate(-20)" style="fill:none"/></clipPath><clipPath id="clip-path-10" transform="translate(-0.63 0)"><rect x="34.67" y="92.2" width="92" height="10" transform="translate(-28.38 33.45) rotate(-20)" style="fill:none"/></clipPath><clipPath id="clip-path-11" transform="translate(-0.63 0)"><rect x="41.51" y="100.99" width="92" height="30" transform="translate(-34.39 36.92) rotate(-20)" style="fill:none"/></clipPath><clipPath id="clip-path-12" transform="translate(-0.63 0)"><rect x="42.47" y="102.47" width="128" height="26" transform="translate(-33.07 43.38) rotate(-20)" style="fill:none"/></clipPath></defs><title>showcase</title><g style="clip-path:url(#clip-path)"><path d="M222.85,144.29l-72.52-26.4a2.7,2.7,0,0,1-1.28-4.09L182,74.64a2.7,2.7,0,0,1,3.12-1l72.52,26.4c1.67.6,1.87,2.48,1.28,4.08L226,143.3A2.7,2.7,0,0,1,222.85,144.29Z" transform="translate(-0.63 0)" style="fill:#04a18c"/><path d="M252.83,81.81l-3.68-1.34-5.3,14.58,6.48,2.36,4.28-11.78A3,3,0,0,0,252.83,81.81Z" transform="translate(-0.63 0)" style="fill:#556080"/><path d="M182,43.18l-3.67-1.34a3,3,0,0,0-3.83,1.79L149.3,112.85l.32.14,12.25-14.53Z" transform="translate(-0.63 0)" style="fill:#ebba16"/><path d="M185.25,73.23a3.21,3.21,0,0,0-2.74.27l16-43.92L235.29,43l23.84,8.68-8.68,23.83-6.9,19-55.06-20Z" transform="translate(-0.63 0)" style="fill:#f7fffe;stroke:#d7d7d7"/><path d="M200.11,59,239,73.1a1.72,1.72,0,1,0,1.18-3.24L201.29,55.71A1.72,1.72,0,0,0,200.11,59Z" transform="translate(-0.63 0)" style="fill:#d7d7d7"/><path d="M204.24,47.61l16.2,5.89a1.72,1.72,0,0,0,1.18-3.24l-16.21-5.89a1.72,1.72,0,1,0-1.17,3.24Z" transform="translate(-0.63 0)" style="fill:#d7d7d7"/><path d="M236,81.2,197.16,67.05A1.72,1.72,0,1,0,196,70.29l38.88,14.15A1.72,1.72,0,1,0,236,81.2Z" transform="translate(-0.63 0)" style="fill:#d7d7d7"/><path d="M181.24,75.49,197,32.14l-4.86-1.77L171.53,87.05Z" transform="translate(-0.63 0)" style="fill:#d7d7d7"/><path d="M171.53,87.05,191,33.61l-4.86-1.77-24.3,66.77Z" transform="translate(-0.63 0)" style="fill:#c5c5c5"/></g><g style="clip-path:url(#clip-path-2)"><rect x="16.9" y="26.86" width="120" height="120" rx="4" transform="translate(-25.7 31.54) rotate(-20)" style="fill:#fafafa"/><g style="clip-path:url(#clip-path-2)"><rect x="16.9" y="26.86" width="120" height="120" rx="4" transform="translate(-25.7 31.54) rotate(-20)" style="fill:#f7fffe"/><g style="clip-path:url(#clip-path-4)"><g style="clip-path:url(#clip-path-5)"><g style="clip-path:url(#clip-path-6)"><g style="clip-path:url(#clip-path-7)"><rect x="22.57" y="60.91" width="14" height="14" rx="3" transform="translate(-22.07 14.21) rotate(-20)" style="fill:none;stroke:#d7d7d7;stroke-width:2px"/></g><path d="M94.66,42.09,105.94,38a2,2,0,0,1,2.56,1.2h0a2,2,0,0,1-1.2,2.56L96,45.85a2,2,0,0,1-2.56-1.2h0A2,2,0,0,1,94.66,42.09Z" transform="translate(-0.63 0)" style="fill:#d7d7d7"/></g></g><g style="clip-path:url(#clip-path-8)"><path d="M31.79,91.57,76.9,75.16a2,2,0,0,1,2.56,1.19h0a2,2,0,0,1-1.19,2.56L33.16,95.33a2,2,0,0,1-2.56-1.19h0A2,2,0,0,1,31.79,91.57Z" transform="translate(-0.63 0)" style="fill:#d7d7d7"/></g><g style="clip-path:url(#clip-path-9)"><path d="M35.21,101l82.7-30.1a2,2,0,0,1,2.56,1.2h0a2,2,0,0,1-1.19,2.56l-82.7,30.1a2,2,0,0,1-2.56-1.2h0A2,2,0,0,1,35.21,101Z" transform="translate(-0.63 0)" style="fill:#d7d7d7"/></g><g style="clip-path:url(#clip-path-10)"><path d="M38.64,110.37l63.89-23.26a2,2,0,0,1,2.57,1.19h0a2,2,0,0,1-1.2,2.57L40,114.13a2,2,0,0,1-2.56-1.2h0A2,2,0,0,1,38.64,110.37Z" transform="translate(-0.63 0)" style="fill:#d7d7d7"/></g><g style="clip-path:url(#clip-path-11)"><g style="clip-path:url(#clip-path-12)"><path d="M51.71,125.83l30.07-11a9,9,0,0,1,11.54,5.38h0a9,9,0,0,1-5.38,11.54L57.87,142.74a9,9,0,0,1-11.54-5.38h0A9,9,0,0,1,51.71,125.83Z" transform="translate(-0.63 0)" style="fill:#d7d7d7"/></g></g></g></g></g><rect x="16.9" y="26.86" width="120" height="120" rx="4" transform="translate(-25.7 31.54) rotate(-20)" style="fill:none;stroke:#d7d7d7"/><rect x="42.37" width="174" height="174" rx="4" style="fill:#fff"/><rect x="42.37" width="174" height="174" rx="4" style="fill:#fff"/><rect x="42.37" width="174" height="174" style="fill:#fff"/><rect x="57.37" y="19" width="14" height="14" rx="3" style="fill:none;stroke:#d7d7d7;stroke-width:2px"/><path d="M189,24h12a2,2,0,0,1,2,2h0a2,2,0,0,1-2,2H189a2,2,0,0,1-2-2h0A2,2,0,0,1,189,24Z" transform="translate(-0.63 0)" style="fill:#d7d7d7"/><path d="M59,49H161a2,2,0,0,1,2,2h0a2,2,0,0,1-2,2H59a2,2,0,0,1-2-2h0A2,2,0,0,1,59,49Z" transform="translate(-0.63 0)" style="fill:#d7d7d7"/><path d="M59,59H201a2,2,0,0,1,2,2h0a2,2,0,0,1-2,2H59a2,2,0,0,1-2-2h0A2,2,0,0,1,59,59Z" transform="translate(-0.63 0)" style="fill:#d7d7d7"/><path d="M59,69H181a2,2,0,0,1,2,2h0a2,2,0,0,1-2,2H59a2,2,0,0,1-2-2h0A2,2,0,0,1,59,69Z" transform="translate(-0.63 0)" style="fill:#d7d7d7"/><path d="M66,88H98a9,9,0,0,1,9,9h0a9,9,0,0,1-9,9H66a9,9,0,0,1-9-9h0A9,9,0,0,1,66,88Z" transform="translate(-0.63 0)" style="fill:#04a18c"/><rect x="42.87" y="0.5" width="173" height="173" rx="3.5" style="fill:none;stroke:#d7d7d7"/></svg>