<?xml version="1.0" encoding="iso-8859-1"?>
<!-- Generator: Adobe Illustrator 19.0.0, SVG Export Plug-In . SVG Version: 6.00 Build 0)  -->
<svg version="1.1" id="Capa_1" xmlns="http://www.w3.org/2000/svg" xmlns:xlink="http://www.w3.org/1999/xlink" x="0px" y="0px"
	 viewBox="0 0 512 512" style="enable-background:new 0 0 512 512;" xml:space="preserve">
<g>
	<g>
		<path d="M458.667,160H212.075c-13.781,0-25.984-8.789-30.336-21.888l-1.877-5.653C172.587,110.656,152.256,96,129.259,96H53.333
			C23.936,96,0,119.936,0,149.333v256c0,29.419,23.936,53.333,53.333,53.333h405.333c29.419,0,53.333-23.915,53.333-53.333v-192
			C512,183.936,488.085,160,458.667,160z M490.667,405.333c0,17.643-14.357,32-32,32H53.333c-17.643,0-32-14.357-32-32v-256
			c0-17.643,14.357-32,32-32h75.925c13.781,0,25.984,8.789,30.336,21.867l1.877,5.675c7.275,21.803,27.605,36.459,50.603,36.459
			h246.592c17.643,0,32,14.357,32,32V405.333z"/>
	</g>
</g>
<g>
	<g>
		<path d="M437.333,53.333H74.667c-29.397,0-53.333,23.936-53.333,53.333c0,5.888,4.779,10.667,10.667,10.667
			s10.667-4.779,10.667-10.667c0-17.643,14.357-32,32-32h362.667c17.643,0,32,14.357,32,32v64c0,5.888,4.779,10.667,10.667,10.667
			c5.888,0,10.667-4.779,10.667-10.667v-64C490.667,77.269,466.752,53.333,437.333,53.333z"/>
	</g>
</g>
<g>
</g>
<g>
</g>
<g>
</g>
<g>
</g>
<g>
</g>
<g>
</g>
<g>
</g>
<g>
</g>
<g>
</g>
<g>
</g>
<g>
</g>
<g>
</g>
<g>
</g>
<g>
</g>
<g>
</g>
</svg>
