<svg width="120" height="120" viewBox="0 0 120 120" fill="none" xmlns="http://www.w3.org/2000/svg">
<g clip-path="url(#clip0)">
<path d="M95.8431 120H3.23823C1.1072 120 -0.442457 117.977 0.114095 115.918L21.1472 58.2538C21.5279 56.8428 22.8086 55.8621 24.2713 55.8621H116.876C119.007 55.8621 120 57.8979 120 59.9441L98.9672 117.608C98.5865 119.019 97.3058 120 95.8431 120Z" fill="#EFCE4A"/>
<path d="M104.003 37.2414H99.3105V55.8621H107.586V40.8248C107.586 38.8448 105.981 37.2414 104.003 37.2414Z" fill="#EBBA16"/>
<path d="M8.27586 22.7586H3.58345C1.60552 22.7586 0 24.3621 0 26.3421V114.745C0.142759 114.749 0.285517 114.757 0.424138 114.766L8.27586 93.3559V22.7586Z" fill="#EBBA16"/>
<path d="M24.2708 55.3621C23.013 55.3621 21.8716 55.9903 21.1895 56.9842V0.5H68.2757H98.8102V31.0345V55.3621H28.4088H24.2708Z" fill="white" stroke="#D7D7D7"/>
<path d="M35.1725 33.1034H84.8277C85.9697 33.1034 86.8966 32.1786 86.8966 31.0344C86.8966 29.8903 85.9697 28.9655 84.8277 28.9655H35.1725C34.0304 28.9655 33.1035 29.8903 33.1035 31.0344C33.1035 32.1786 34.0304 33.1034 35.1725 33.1034Z" fill="#C5C5C5"/>
<path d="M35.1725 18.6207H55.8621C57.0042 18.6207 57.9311 17.6958 57.9311 16.5517C57.9311 15.4076 57.0042 14.4827 55.8621 14.4827H35.1725C34.0304 14.4827 33.1035 15.4076 33.1035 16.5517C33.1035 17.6958 34.0304 18.6207 35.1725 18.6207Z" fill="#C5C5C5"/>
<path d="M84.8277 43.4482H35.1725C34.0304 43.4482 33.1035 44.3731 33.1035 45.5172C33.1035 46.6613 34.0304 47.5862 35.1725 47.5862H84.8277C85.9697 47.5862 86.8966 46.6613 86.8966 45.5172C86.8966 44.3731 85.9697 43.4482 84.8277 43.4482Z" fill="#C5C5C5"/>
<path d="M20.6893 59.5055V4.13794H14.4824V76.5228L20.6893 59.5055Z" fill="#D7D7D7"/>
<path d="M14.4833 76.5228V8.27588H8.27637V93.54L14.4833 76.5228Z" fill="#C5C5C5"/>
</g>
<defs>
<clipPath id="clip0">
<rect width="120" height="120" fill="white"/>
</clipPath>
</defs>
</svg>
