<svg id="Слой_1" data-name="Слой 1" xmlns="http://www.w3.org/2000/svg" viewBox="0 0 513.76 513.76"><title>logo</title><path d="M455.24,210.94H331.73a15,15,0,0,1-15-15h0V100.53a15,15,0,0,1,15-15H455.24a15,15,0,0,1,14.22,19.83l-14.58,42.86,14.54,42.88a15,15,0,0,1-14.22,19.84Z" style="fill:#04a18c"/><path d="M358.51,157.5H214.06V32.08H358.51a15,15,0,0,1,15,15v95.4a15,15,0,0,1-15,15Z" style="fill:#44c4a1"/><path d="M214.06,270a15,15,0,0,1-15-15h0V15a15,15,0,0,1,30,0V255a15,15,0,0,1-15,15Z" style="fill:#a56032"/><path d="M214.06,0V270a15,15,0,0,0,15-15h0V15A15,15,0,0,0,214.06,0Z" style="fill:#854d29"/><path d="M315.35,255.79V298H247.82V255.79a15,15,0,0,0-15-15h-37.5a15,15,0,0,0-15,15h0V298H112.78V255.79a15,15,0,0,0-15-15H60.27a15,15,0,0,0-15,15h0V359.12a15.11,15.11,0,0,0,1.61,6.72L77.43,427A15,15,0,0,1,79,433.71V512H349.11V433.73a15,15,0,0,1,1.58-6.71l30.6-61.18a15.08,15.08,0,0,0,1.58-6.72V255.79a15,15,0,0,0-15-15h-37.5a15,15,0,0,0-15,15h0Z" style="fill:#f9f6f6"/><path d="M367.88,240.78h-37.5a15,15,0,0,0-15,15V298H247.82V255.79a15,15,0,0,0-15-15H214.06V512H349.11V433.73a15,15,0,0,1,1.58-6.71l30.59-61.18a15,15,0,0,0,1.59-6.72V255.79a15,15,0,0,0-15-15h0Z" style="fill:#dddada"/><path d="M382.44,362.67H45.68a15,15,0,0,0,1.2,3.17L77.43,427a14.32,14.32,0,0,1,1.15,3.17h271a14.32,14.32,0,0,1,1.15-3.17l30.59-61.18A15.35,15.35,0,0,0,382.44,362.67Z" style="fill:#dddada"/><path d="M214.06,362.67v67.52H349.54a14.84,14.84,0,0,1,1.15-3.17l30.59-61.18a15.43,15.43,0,0,0,1.16-3.17Z" style="fill:#c3c1c1"/><rect width="513.76" height="513.76" style="fill:none"/></svg>