<svg xmlns="http://www.w3.org/2000/svg" xmlns:xlink="http://www.w3.org/1999/xlink" xmlns:svgjs="http://svgjs.com/svgjs" version="1.1" width="512" height="512" x="0" y="0" viewBox="0 0 511.589 511.589" style="enable-background:new 0 0 512 512" xml:space="preserve" class=""><g><g xmlns="http://www.w3.org/2000/svg"><g><g><path d="m453.119 210.767h-123.412c-8.284 0-15-6.716-15-15v-95.32c0-8.284 6.716-15 15-15h123.412c10.271 0 17.504 10.09 14.206 19.816l-14.526 42.843 14.526 42.843c3.298 9.729-3.935 19.818-14.206 19.818z" fill="#3a8762" data-original="#d9225b" style="" class=""/><path d="m356.467 157.374h-144.336v-125.319h144.336c8.284 0 15 6.716 15 15v95.32c0 8.284-6.716 14.999-15 14.999z" fill="#2bb673" data-original="#de5958" style="" class=""/></g><g><g><path d="m212.131 269.812c-8.284 0-15-6.716-15-15v-239.812c0-8.284 6.716-15 15-15s15 6.716 15 15v239.812c0 8.284-6.716 15-15 15z" fill="#a56032" data-original="#a56032" style="" class=""/></g><g><path d="m212.131 0v269.812c8.284 0 15-6.716 15-15v-239.812c0-8.284-6.716-15-15-15z" fill="#854d29" data-original="#854d29" style="" class=""/></g></g></g><g><g><path d="m313.334 255.589v42.175h-67.469v-42.175c0-8.284-6.716-15-15-15h-37.469c-8.284 0-15 6.716-15 15v42.175h-67.469v-42.175c0-8.284-6.716-15-15-15h-37.468c-8.284 0-15 6.716-15 15v103.245c0 2.329.542 4.625 1.584 6.708l30.567 61.135c1.042 2.083 1.584 4.379 1.584 6.708v78.203h269.876v-78.203c0-2.329.542-4.625 1.584-6.708l30.567-61.135c1.041-2.083 1.584-4.379 1.584-6.708v-103.245c0-8.284-6.716-15-15-15h-37.469c-8.286 0-15.002 6.716-15.002 15z" fill="#f9f6f6" data-original="#fbf4f4" style="" class=""/><path d="m365.803 240.589h-37.469c-8.284 0-15 6.716-15 15v42.175h-67.469v-42.175c0-8.284-6.716-15-15-15h-18.734v271h134.938v-78.204c0-2.329.542-4.625 1.584-6.708l30.567-61.135c1.041-2.083 1.583-4.379 1.583-6.708v-103.245c0-8.284-6.716-15-15-15z" fill="#dddada" data-original="#eae0db" style="" class=""/></g><g><path d="m380.374 362.376h-336.486c.265 1.092.648 2.155 1.154 3.167l30.567 61.135c.506 1.012.889 2.075 1.154 3.167h270.734c.265-1.092.648-2.155 1.154-3.167l30.567-61.135c.507-1.012.89-2.075 1.156-3.167z" fill="#dddada" data-original="#eae0db" style="" class=""/><path d="m212.131 362.376v67.469h135.367c.265-1.092.648-2.155 1.154-3.167l30.567-61.135c.506-1.012.889-2.075 1.154-3.167z" fill="#c3c1c1" data-original="#c7bdb8" style="" class=""/></g></g></g></g></svg>
