<svg width="120" height="120" viewBox="0 0 120 120" fill="none" xmlns="http://www.w3.org/2000/svg">
<g clip-path="url(#clip0)">
<path d="M95.8431 120.138H3.23823C1.1072 120.138 -0.442457 118.114 0.114095 116.056L21.1472 58.3917C21.5279 56.9807 22.8086 56 24.2713 56H116.876C119.007 56 120 58.0359 120 60.0821L98.9672 117.746C98.5865 119.157 97.3058 120.138 95.8431 120.138Z" fill="#EFCE4A"/>
<path d="M104.003 37.4828H51.7241L41.3793 23H3.58345C1.60552 23 0 24.6034 0 26.5834V114.986C0.142759 114.99 0.285517 114.999 0.424138 115.007L21.1448 58.4952C21.5255 57.0821 22.8062 56.1034 24.269 56.1034H107.586V41.0662C107.586 39.0862 105.981 37.4828 104.003 37.4828Z" fill="#EBBA16"/>
</g>
<defs>
<clipPath id="clip0">
<rect width="120" height="120" fill="white"/>
</clipPath>
</defs>
</svg>
